<?xml version="1.0" encoding="UTF-8"?>
<svg width="144" height="144" viewBox="0 0 144 144" xmlns="http://www.w3.org/2000/svg">
  <!-- Background -->
  <rect width="144" height="144" fill="#1e88e5" rx="8"/>
  
  <!-- Rocket body -->
  <path d="M 72 30 L 85 75 L 85 95 L 72 100 L 59 95 L 59 75 Z" 
        fill="#ffffff" 
        stroke="#ffffff" 
        stroke-width="2"/>
  
  <!-- Rocket nose cone -->
  <path d="M 72 20 L 85 30 L 59 30 Z" 
        fill="#ffffff"/>
  
  <!-- Window -->
  <circle cx="72" cy="50" r="8" fill="#1e88e5"/>
  
  <!-- Left wing -->
  <path d="M 59 75 L 45 90 L 45 75 Z" 
        fill="#ffffff"/>
  
  <!-- Right wing -->
  <path d="M 85 75 L 99 90 L 99 75 Z" 
        fill="#ffffff"/>
  
  <!-- Left flame -->
  <ellipse cx="64" cy="105" rx="5" ry="12" fill="#ff9800" opacity="0.8"/>
  
  <!-- Center flame -->
  <ellipse cx="72" cy="108" rx="6" ry="15" fill="#ff5722" opacity="0.8"/>
  
  <!-- Right flame -->
  <ellipse cx="80" cy="105" rx="5" ry="12" fill="#ff9800" opacity="0.8"/>
  
  <!-- GitHub icon (small) -->
  <circle cx="120" cy="24" r="12" fill="#333333" opacity="0.8"/>
  <path d="M 120 18 C 116.7 18 114 20.7 114 24 C 114 26.7 115.8 28.9 118.3 29.7 
           C 118.6 29.7 118.7 29.5 118.7 29.3 V 28.3 C 117.2 28.6 116.9 27.6 116.9 27.6 
           C 116.6 26.9 116.2 26.7 116.2 26.7 C 115.6 26.3 116.2 26.3 116.2 26.3 
           C 116.8 26.4 117.1 26.9 117.1 26.9 C 117.6 27.8 118.5 27.5 118.7 27.4 
           C 118.8 27 118.9 26.7 119.1 26.5 C 117.8 26.4 116.4 25.9 116.4 23.8 
           C 116.4 23.1 116.6 22.6 117.1 22.2 C 117 22 116.8 21.4 117.2 20.6 
           C 117.2 20.6 117.7 20.4 118.7 21.1 C 119.2 20.9 119.6 20.9 120 20.9 
           C 120.4 20.9 120.8 20.9 121.3 21.1 C 122.3 20.5 122.8 20.6 122.8 20.6 
           C 123.2 21.3 123 22 122.9 22.2 C 123.4 22.5 123.6 23.1 123.6 23.8 
           C 123.6 25.9 122.2 26.3 120.9 26.5 C 121.1 26.7 121.3 27 121.3 27.5 
           V 29.3 C 121.3 29.5 121.4 29.7 121.7 29.7 C 124.2 28.9 126 26.7 126 24 
           C 126 20.7 123.3 18 120 18 Z" 
        fill="#ffffff"/>
</svg>
